<?xml version="1.0" encoding="utf-8"?>
<svg version="1.1" xmlns="http://www.w3.org/2000/svg" xmlns:xlink="http://www.w3.org/1999/xlink" width="64" height="64" viewBox="0 0 64 64">
<path id="pptsvg" d="M12 32h12v4h-12v-4zM12 40h12v4h-12v-4zM12 48h12v4h-12v-4zM56.465 12.464l-8.929-8.929c-1.944-1.944-5.785-3.535-8.535-3.535h-30c-2.75 0-5 2.25-5 5v54c0 2.75 2.25 5 5 5h46c2.75 0 5-2.25 5-5v-38c0-2.75-1.591-6.591-3.535-8.536zM53.636 15.293c0.196 0.196 0.391 0.436 0.58 0.707h-10.216v-10.216c0.271 0.189 0.511 0.384 0.707 0.58l8.929 8.929zM56 59c0 0.542-0.458 1-1 1h-46c-0.542 0-1-0.458-1-1v-54c0-0.542 0.458-1 1-1h30c0.302 0 0.641 0.038 1 0.106v15.893h15.894c0.068 0.359 0.106 0.698 0.106 1v38zM36 44h11.8c-0.927 4.565-4.962 8-9.8 8-5.523 0-10-4.477-10-10 0-4.838 3.436-8.873 8-9.8v11.8zM42 28c5.523 0 10 4.477 10 10 0 0.685-0.069 1.354-0.2 2h-11.8v-11.8c0.646-0.131 1.315-0.201 2-0.201z" fill="#555555"></path>
</svg>
